<svg xmlns="http://www.w3.org/2000/svg" xmlns:xlink="http://www.w3.org/1999/xlink" viewBox="0 0 271.31 83.9"><defs><style>.cls-1{fill:#fff;}.cls-2{fill:url(#Naamloos_verloop_36);}.cls-3{fill:url(#Naamloos_verloop_31);}.cls-4{fill:url(#Naamloos_verloop_34);}</style><linearGradient id="Naamloos_verloop_36" x1="1569.12" y1="21.99" x2="1637.18" y2="21.99" gradientTransform="matrix(-1, 0, 0, 1, 1638.81, 0)" gradientUnits="userSpaceOnUse"><stop offset="0.11" stop-color="#c74c75"/><stop offset="0.36" stop-color="#b64b79"/><stop offset="0.84" stop-color="#894885"/><stop offset="1" stop-color="#794789"/></linearGradient><linearGradient id="Naamloos_verloop_31" x1="1567.62" y1="67.36" x2="1636.83" y2="64.85" gradientTransform="matrix(-1, 0, 0, 1, 1638.81, 0)" gradientUnits="userSpaceOnUse"><stop offset="0" stop-color="#2eaca3"/><stop offset="0.28" stop-color="#2e969b"/><stop offset="0.87" stop-color="#2d5d87"/><stop offset="1" stop-color="#2d5082"/></linearGradient><linearGradient id="Naamloos_verloop_34" x1="1560.21" y1="42.25" x2="1622.76" y2="42.25" gradientTransform="matrix(-1, 0, 0, 1, 1638.81, 0)" gradientUnits="userSpaceOnUse"><stop offset="0.02" stop-color="#2a8f53"/><stop offset="0.18" stop-color="#339352"/><stop offset="0.44" stop-color="#4c9f50"/><stop offset="0.77" stop-color="#75b24b"/><stop offset="1" stop-color="#96c248"/></linearGradient></defs><title>logo</title><g id="Layer_2" data-name="Layer 2"><g id="Layer_1-2" data-name="Layer 1"><path class="cls-1" d="M121,8.51V23.17h-2.71V16.88h-7.56v6.29H108V8.51h2.71v6.05h7.56V8.51Z"/><path class="cls-1" d="M135.82,20.88v2.29H124.87V8.51h10.66v2.28h-8V14.6h7v2.24h-7v4Z"/><path class="cls-1" d="M148.32,19.77H141l-1.43,3.4h-2.8l6.57-14.66H146l6.59,14.66h-2.83Zm-.9-2.13-2.75-6.41-2.74,6.41Z"/><path class="cls-1" d="M154.47,8.51h2.71V20.86h7.64v2.31H154.47Z"/><path class="cls-1" d="M168.57,10.81h-4.84V8.51h12.39v2.3h-4.84V23.17h-2.71Z"/><path class="cls-1" d="M191.14,8.51V23.17h-2.71V16.88h-7.55v6.29h-2.71V8.51h2.71v6.05h7.55V8.51Z"/><path class="cls-1" d="M201.36,18v5.18h-2.71V18l-5.73-9.53h2.89l4.28,7.14,4.32-7.14h2.67Z"/><path class="cls-1" d="M118.92,40.92V43.2H108V28.54h10.66v2.29h-7.95v3.81h7.06v2.24h-7.06v4Z"/><path class="cls-1" d="M134.92,28.54V43.2h-2.23l-8-9.92V43.2H122V28.54h2.23l8,9.93V28.54Z"/><path class="cls-1" d="M152.09,28.54,145.73,43.2h-2.67l-6.38-14.66h2.94l4.86,11.31,4.9-11.31Z"/><path class="cls-1" d="M153.64,28.54h2.71V43.2h-2.71Z"/><path class="cls-1" d="M169.84,43.2l-3-4.29-.56,0H163V43.2h-2.71V28.54h6a8,8,0,0,1,3.3.63,4.82,4.82,0,0,1,2.16,1.8,5.06,5.06,0,0,1,.75,2.79,4.91,4.91,0,0,1-.8,2.84,4.72,4.72,0,0,1-2.3,1.78l3.35,4.82Zm-1-11.6a4.17,4.17,0,0,0-2.69-.75H163v5.84h3.17a4.11,4.11,0,0,0,2.69-.77,3,3,0,0,0,0-4.32Z"/><path class="cls-1" d="M178.33,42.44a7.22,7.22,0,0,1-2.81-2.7,7.83,7.83,0,0,1,0-7.73,7.22,7.22,0,0,1,2.81-2.7,8.78,8.78,0,0,1,8.06,0A7.2,7.2,0,0,1,189.2,32a7.87,7.87,0,0,1,0,7.75,7.27,7.27,0,0,1-2.81,2.69,8.86,8.86,0,0,1-8.06,0ZM185,40.36a4.69,4.69,0,0,0,1.83-1.84,5.58,5.58,0,0,0,0-5.3A4.69,4.69,0,0,0,185,31.38a5.57,5.57,0,0,0-5.26,0,4.69,4.69,0,0,0-1.83,1.84,5.58,5.58,0,0,0,0,5.3,4.69,4.69,0,0,0,1.83,1.84,5.57,5.57,0,0,0,5.26,0Z"/><path class="cls-1" d="M206.08,28.54V43.2h-2.23l-8.06-9.92V43.2H193.1V28.54h2.24l8,9.93V28.54Z"/><path class="cls-1" d="M223.41,43.2l0-9.72-4.8,8.05h-1.21l-4.79-7.92V43.2H210V28.54h2.23l5.8,9.72,5.69-9.72H226l0,14.66Z"/><path class="cls-1" d="M240.87,40.92V43.2h-11V28.54h10.66v2.29h-8v3.81h7.05v2.24h-7.05v4Z"/><path class="cls-1" d="M256.87,28.54V43.2h-2.23l-8-9.92V43.2H243.9V28.54h2.23l8.05,9.93V28.54Z"/><path class="cls-1" d="M263.75,30.85h-4.83V28.54h12.39v2.31h-4.84V43.2h-2.72Z"/><path class="cls-1" d="M117.94,55.74h2.57v5.84A8.14,8.14,0,0,1,117.88,63a9.79,9.79,0,0,1-3.09.49,8.28,8.28,0,0,1-4-1A7.16,7.16,0,0,1,108,59.78,7.87,7.87,0,0,1,108,52a7.26,7.26,0,0,1,2.83-2.69,8.37,8.37,0,0,1,4.06-1,8.7,8.7,0,0,1,3.33.61,6.43,6.43,0,0,1,2.53,1.78L119,52.43a5.48,5.48,0,0,0-4-1.67,5.58,5.58,0,0,0-2.74.65,4.7,4.7,0,0,0-1.88,1.82,5.54,5.54,0,0,0,0,5.32,4.89,4.89,0,0,0,1.88,1.84,5.43,5.43,0,0,0,2.72.67,5.77,5.77,0,0,0,3-.76Z"/><path class="cls-1" d="M133.63,63.24l-3-4.3a4.38,4.38,0,0,1-.57,0h-3.29v4.28h-2.71V48.58h6a8,8,0,0,1,3.31.63,4.82,4.82,0,0,1,2.16,1.8,5.5,5.5,0,0,1-.05,5.63,4.79,4.79,0,0,1-2.31,1.78l3.36,4.82Zm-1-11.6a4.11,4.11,0,0,0-2.69-.76h-3.17v5.84H130a4.11,4.11,0,0,0,2.69-.76,2.67,2.67,0,0,0,.92-2.17A2.63,2.63,0,0,0,132.65,51.64Z"/><path class="cls-1" d="M142.12,62.47a7.25,7.25,0,0,1-2.82-2.7,7.83,7.83,0,0,1,0-7.73,7.25,7.25,0,0,1,2.82-2.7,8.84,8.84,0,0,1,8,0A7.23,7.23,0,0,1,153,52a7.87,7.87,0,0,1,0,7.75,7.16,7.16,0,0,1-2.82,2.69,8.76,8.76,0,0,1-8,0Zm6.65-2.07a4.72,4.72,0,0,0,1.84-1.84,5.58,5.58,0,0,0,0-5.3,4.72,4.72,0,0,0-1.84-1.84,5.55,5.55,0,0,0-5.25,0,4.78,4.78,0,0,0-1.84,1.84,5.58,5.58,0,0,0,0,5.3,4.78,4.78,0,0,0,1.84,1.84,5.55,5.55,0,0,0,5.25,0Z"/><path class="cls-1" d="M158.45,61.74a6.69,6.69,0,0,1-1.69-4.89V48.58h2.72v8.17c0,2.87,1.23,4.31,3.71,4.31s3.69-1.44,3.69-4.31V48.58h2.67v8.27a6.69,6.69,0,0,1-1.68,4.89,7.34,7.34,0,0,1-9.42,0Z"/><path class="cls-1" d="M182.66,49.21a4.82,4.82,0,0,1,2.16,1.8,5.53,5.53,0,0,1,0,5.56,4.78,4.78,0,0,1-2.16,1.81,8,8,0,0,1-3.3.63h-3.3v4.23h-2.71V48.58h6A8,8,0,0,1,182.66,49.21ZM181.92,56a3,3,0,0,0,0-4.31,4.11,4.11,0,0,0-2.69-.76h-3.17V56.7h3.17A4.17,4.17,0,0,0,181.92,56Z"/><rect class="cls-1" x="97.67" y="8.51" width="1.1" height="73.84"/><path class="cls-1" d="M108.92,82a3.11,3.11,0,0,1-1.28-.89l.18-.16a3.19,3.19,0,0,0,1.19.83,4.2,4.2,0,0,0,1.66.32,3.2,3.2,0,0,0,2-.53,1.7,1.7,0,0,0,.69-1.4,1.51,1.51,0,0,0-.36-1.06,2.26,2.26,0,0,0-.88-.6,12.64,12.64,0,0,0-1.41-.4,14.07,14.07,0,0,1-1.51-.45,2.42,2.42,0,0,1-.94-.67,1.8,1.8,0,0,1-.39-1.21,2,2,0,0,1,.31-1.09,2.18,2.18,0,0,1,1-.79,3.91,3.91,0,0,1,1.62-.3,4.15,4.15,0,0,1,1.35.22,3.75,3.75,0,0,1,1.15.57l-.14.2a3.68,3.68,0,0,0-1.12-.56,4.14,4.14,0,0,0-1.23-.19,3,3,0,0,0-2,.55,1.69,1.69,0,0,0-.68,1.4,1.54,1.54,0,0,0,.36,1.07,2.1,2.1,0,0,0,.88.6,12.59,12.59,0,0,0,1.43.42,12.14,12.14,0,0,1,1.5.46,2.27,2.27,0,0,1,.93.65,1.71,1.71,0,0,1,.39,1.18,1.92,1.92,0,0,1-.33,1.09,2.19,2.19,0,0,1-1,.79,4.12,4.12,0,0,1-1.64.29A4.49,4.49,0,0,1,108.92,82Z"/><path class="cls-1" d="M120.72,76.48a2.25,2.25,0,0,1,.59,1.67v4.19h-.25V81a2.38,2.38,0,0,1-.93,1,2.88,2.88,0,0,1-1.5.37,2.53,2.53,0,0,1-1.66-.49,1.6,1.6,0,0,1-.59-1.31,1.57,1.57,0,0,1,.53-1.24,2.57,2.57,0,0,1,1.73-.48h2.42v-.7a1.8,1.8,0,0,0-2-2,3.44,3.44,0,0,0-1.29.24,3.29,3.29,0,0,0-1,.65l-.17-.17a3.14,3.14,0,0,1,1.11-.7,3.7,3.7,0,0,1,1.37-.25A2.32,2.32,0,0,1,120.72,76.48Zm.34,4V79.1h-2.43a2.34,2.34,0,0,0-1.52.4,1.29,1.29,0,0,0-.49,1.07,1.39,1.39,0,0,0,.53,1.15,2.33,2.33,0,0,0,1.48.42A2.41,2.41,0,0,0,121.06,80.51Z"/><path class="cls-1" d="M126,73.72a1.46,1.46,0,0,0-.33,1v1.18h2.15v.24h-2.15v6.16h-.25V76.18h-1.23v-.24h1.23V74.69a1.59,1.59,0,0,1,.41-1.14,1.47,1.47,0,0,1,1.13-.43,2.1,2.1,0,0,1,.7.12,1.39,1.39,0,0,1,.55.34l-.18.17a1.49,1.49,0,0,0-1.06-.39A1.26,1.26,0,0,0,126,73.72Z"/><path class="cls-1" d="M135.4,79.14h-5.67a3.2,3.2,0,0,0,.38,1.55,2.73,2.73,0,0,0,1.06,1.07,2.91,2.91,0,0,0,1.5.38,3,3,0,0,0,1.23-.25,2.38,2.38,0,0,0,.95-.74l.17.18a2.77,2.77,0,0,1-1,.78,3.2,3.2,0,0,1-1.31.27A3.29,3.29,0,0,1,131,82a3,3,0,0,1-1.13-1.16,3.34,3.34,0,0,1-.42-1.67,3.52,3.52,0,0,1,.39-1.67,2.85,2.85,0,0,1,1.05-1.15,2.78,2.78,0,0,1,1.51-.41,2.92,2.92,0,0,1,1.51.4A3,3,0,0,1,135,77.44a3.36,3.36,0,0,1,.39,1.63Zm-4.3-2.64a2.63,2.63,0,0,0-1,1,3,3,0,0,0-.4,1.41h5.44a3,3,0,0,0-.41-1.41,2.79,2.79,0,0,0-1-1,2.62,2.62,0,0,0-1.35-.36A2.56,2.56,0,0,0,131.1,76.5Z"/><path class="cls-1" d="M146.76,76.48a2.25,2.25,0,0,1,.59,1.67v4.19h-.25V81a2.26,2.26,0,0,1-.93,1,2.85,2.85,0,0,1-1.5.37,2.53,2.53,0,0,1-1.66-.49,1.63,1.63,0,0,1-.59-1.31,1.57,1.57,0,0,1,.53-1.24,2.57,2.57,0,0,1,1.73-.48h2.42v-.7a1.8,1.8,0,0,0-2-2,3.44,3.44,0,0,0-1.29.24,3.29,3.29,0,0,0-1,.65l-.17-.17a3.14,3.14,0,0,1,1.11-.7,3.7,3.7,0,0,1,1.37-.25A2.32,2.32,0,0,1,146.76,76.48Zm.34,4V79.1h-2.43a2.34,2.34,0,0,0-1.52.4,1.29,1.29,0,0,0-.49,1.07,1.39,1.39,0,0,0,.53,1.15,2.35,2.35,0,0,0,1.48.42A2.4,2.4,0,0,0,147.1,80.51Z"/><path class="cls-1" d="M161.09,76.59a2.75,2.75,0,0,1,.66,2v3.77h-.25V78.57a2.51,2.51,0,0,0-.58-1.8,2.1,2.1,0,0,0-1.64-.63,2.5,2.5,0,0,0-1.91.75,2.76,2.76,0,0,0-.7,2v3.48h-.25V78.57a2.51,2.51,0,0,0-.58-1.8,2.1,2.1,0,0,0-1.64-.63,2.5,2.5,0,0,0-1.91.75,2.76,2.76,0,0,0-.7,2v3.48h-.25v-6.4h.25v1.7a2.49,2.49,0,0,1,1-1.28,2.9,2.9,0,0,1,1.64-.45,2.48,2.48,0,0,1,1.6.49,2.28,2.28,0,0,1,.82,1.41,2.52,2.52,0,0,1,.94-1.39,2.85,2.85,0,0,1,1.72-.51A2.44,2.44,0,0,1,161.09,76.59Z"/><path class="cls-1" d="M170.41,76.32a3,3,0,0,1,1.12,1.15,3.69,3.69,0,0,1,0,3.34A3,3,0,0,1,170.41,82a3.12,3.12,0,0,1-1.57.41,3,3,0,0,1-1.76-.54A2.89,2.89,0,0,1,166,80.39v2h-.25V73.16H166v4.73a2.89,2.89,0,0,1,1.09-1.45,3.07,3.07,0,0,1,1.76-.53A3,3,0,0,1,170.41,76.32Zm-.12,5.44a2.66,2.66,0,0,0,1-1.07,3.45,3.45,0,0,0,0-3.11,2.69,2.69,0,0,0-1-1.06,2.85,2.85,0,0,0-1.45-.38,2.89,2.89,0,0,0-1.46.38,2.74,2.74,0,0,0-1,1.06,3.45,3.45,0,0,0,0,3.11,2.7,2.7,0,0,0,1,1.07,2.79,2.79,0,0,0,1.46.38A2.76,2.76,0,0,0,170.29,81.76Z"/><path class="cls-1" d="M175.15,74.07a.28.28,0,0,1-.1-.22.29.29,0,0,1,.1-.23.29.29,0,0,1,.22-.09.33.33,0,0,1,.23.09.32.32,0,0,1,.09.23.31.31,0,0,1-.09.22.3.3,0,0,1-.23.1A.27.27,0,0,1,175.15,74.07Zm.1,1.87h.25v6.4h-.25Z"/><path class="cls-1" d="M184.72,79.14h-5.67a3.1,3.1,0,0,0,.38,1.55,2.7,2.7,0,0,0,1,1.07,3.17,3.17,0,0,0,2.74.13,2.38,2.38,0,0,0,.95-.74l.17.18a2.77,2.77,0,0,1-1,.78,3.2,3.2,0,0,1-1.31.27,3.29,3.29,0,0,1-1.63-.41,3,3,0,0,1-1.13-1.16,3.34,3.34,0,0,1-.42-1.67,3.52,3.52,0,0,1,.39-1.67,2.85,2.85,0,0,1,1.05-1.15,2.78,2.78,0,0,1,1.51-.41,2.86,2.86,0,0,1,1.5.4,2.91,2.91,0,0,1,1.07,1.13,3.36,3.36,0,0,1,.39,1.63Zm-4.3-2.64a2.63,2.63,0,0,0-1,1,3,3,0,0,0-.4,1.41h5.44a3,3,0,0,0-.41-1.41,2.74,2.74,0,0,0-1-1,2.67,2.67,0,0,0-2.68,0Z"/><path class="cls-1" d="M192.83,76.59a2.72,2.72,0,0,1,.68,2v3.77h-.25V78.57a2.52,2.52,0,0,0-.59-1.8,2.24,2.24,0,0,0-1.7-.63,2.62,2.62,0,0,0-2,.75,2.73,2.73,0,0,0-.72,2v3.48H188v-6.4h.24v1.71a2.58,2.58,0,0,1,1-1.28,3,3,0,0,1,1.69-.46A2.52,2.52,0,0,1,192.83,76.59Z"/><path class="cls-1" d="M200.39,81.92a1.32,1.32,0,0,1-.55.34,2,2,0,0,1-.69.12A1.49,1.49,0,0,1,198,82a1.61,1.61,0,0,1-.4-1.14V76.18h-1.23v-.24h1.23v-1.4h.25v1.4H200v.24h-2.16v4.57a1.49,1.49,0,0,0,.33,1,1.28,1.28,0,0,0,1,.35,1.49,1.49,0,0,0,1.06-.39Z"/><path class="cls-1" d="M211.57,76.48a2.25,2.25,0,0,1,.58,1.67v4.19h-.24V81a2.38,2.38,0,0,1-.93,1,2.88,2.88,0,0,1-1.5.37,2.53,2.53,0,0,1-1.66-.49,1.6,1.6,0,0,1-.6-1.31,1.58,1.58,0,0,1,.54-1.24,2.55,2.55,0,0,1,1.73-.48h2.42v-.7a2,2,0,0,0-.51-1.51,2.08,2.08,0,0,0-1.52-.51,3.39,3.39,0,0,0-1.28.24,3.18,3.18,0,0,0-1,.65l-.18-.17a3.33,3.33,0,0,1,1.11-.7,3.78,3.78,0,0,1,1.37-.25A2.34,2.34,0,0,1,211.57,76.48Zm.34,4V79.1h-2.43a2.34,2.34,0,0,0-1.52.4,1.29,1.29,0,0,0-.49,1.07,1.37,1.37,0,0,0,.53,1.15,2.31,2.31,0,0,0,1.48.42A2.41,2.41,0,0,0,211.91,80.51Z"/><path class="cls-1" d="M216,74.07a.31.31,0,0,1-.09-.22.32.32,0,0,1,.09-.23.33.33,0,0,1,.23-.09.31.31,0,0,1,.22.09.29.29,0,0,1,.1.23.34.34,0,0,1-.32.32A.3.3,0,0,1,216,74.07Zm.11,1.87h.25v6.4h-.25Z"/><path class="cls-1" d="M221.62,76.35a2.71,2.71,0,0,1,1.59-.44v.24h-.07a2.26,2.26,0,0,0-1.79.74,2.94,2.94,0,0,0-.64,2v3.44h-.25v-6.4h.25V77.6A2.4,2.4,0,0,1,221.62,76.35Z"/><path class="cls-2" d="M69.69.54l-3.61,22S8.66,9.41,1.74,44c0,0-3.08-28.22,23.6-38.41C46.26-2.43,69.69.54,69.69.54Z"/><path class="cls-3" d="M1.63,47.2S-8.69,81.45,22.56,83.9c17.83,0,26.57-1.83,41.79-13.37,6.5-5,12.74-14.31,13.58-21.23,0,0-8.81,13.94-49.5,15.73C11.34,65.55,2.42,57.48,1.63,47.2Z"/><path class="cls-4" d="M77.93,45.68s5-16.36-12.17-20-44.83,7.55-44.83,7.55L16.06,59.52S69.64,23,77.93,45.68Z"/></g></g></svg>